<svg width="114" height="36" viewBox="0 0 114 36" fill="none" xmlns="http://www.w3.org/2000/svg">
<path d="M29.04 12.12L18.7734 7.12842C18.6057 7.04689 18.4108 7.04255 18.2396 7.11651L6.66204 12.12L18.2121 17.7355C18.3985 17.8262 18.6172 17.8209 18.7991 17.7215L29.04 12.12Z" fill="#2B2B2B"/>
<path d="M6.66204 12.12L18.2121 17.7355C18.3985 17.8262 18.6172 17.8209 18.7991 17.7215L29.04 12.12L18.7734 7.12842C18.6057 7.04689 18.4108 7.04255 18.2396 7.11651L6.66204 12.12ZM6.66204 12.12C6.66204 12.12 6.05427 13.6507 6.00386 14.68C5.94152 15.953 6.66204 17.88 6.66204 17.88M29.04 17.88L18.7991 23.4815C18.6172 23.5809 18.3985 23.5862 18.2121 23.4955L6.66204 17.88M6.66204 17.88C6.66204 17.88 6.00386 19.8056 6.00386 21.08C6.00386 22.3544 6.66204 24.28 6.66204 24.28L18.2121 29.8955C18.3985 29.9862 18.6172 29.9809 18.7991 29.8815L29.04 24.28" stroke="#2B2B2B" stroke-width="2.56" stroke-linecap="round" stroke-linejoin="round"/>
<path d="M50.16 14.24H45.5V16.76H49.9V20.08H45.5V22.68H50.16V26H41.58V10.92H50.16V14.24ZM60.8263 20.9C60.8263 20.58 60.7663 20.28 60.6463 20C60.5396 19.7067 60.3796 19.4533 60.1663 19.24C59.9529 19.0267 59.6996 18.86 59.4063 18.74C59.1263 18.6067 58.8196 18.54 58.4863 18.54C58.1663 18.54 57.8663 18.6 57.5863 18.72C57.3063 18.84 57.0596 19.0067 56.8463 19.22C56.6463 19.4333 56.4796 19.6867 56.3463 19.98C56.2263 20.26 56.1663 20.56 56.1663 20.88C56.1663 21.2 56.2263 21.5 56.3463 21.78C56.4663 22.06 56.6329 22.3067 56.8463 22.52C57.0596 22.72 57.3063 22.8867 57.5863 23.02C57.8796 23.14 58.1863 23.2 58.5063 23.2C58.8263 23.2 59.1263 23.14 59.4063 23.02C59.6863 22.9 59.9263 22.7333 60.1263 22.52C60.3396 22.3067 60.5063 22.06 60.6263 21.78C60.7596 21.5 60.8263 21.2067 60.8263 20.9ZM56.2663 31.12H52.6463V15.74H56.2663V16.88C57.0396 15.9067 58.0929 15.42 59.4263 15.42C60.1596 15.42 60.8396 15.5667 61.4663 15.86C62.1063 16.14 62.6596 16.5267 63.1263 17.02C63.5929 17.5133 63.9529 18.0933 64.2063 18.76C64.4729 19.4267 64.6063 20.14 64.6063 20.9C64.6063 21.66 64.4729 22.3667 64.2063 23.02C63.9529 23.6733 63.5929 24.2467 63.1263 24.74C62.6729 25.2333 62.1329 25.62 61.5062 25.9C60.8796 26.18 60.1996 26.32 59.4663 26.32C58.1863 26.32 57.1196 25.88 56.2663 25V31.12ZM70.2897 15.74V26H66.6697V15.74H70.2897ZM66.4297 11.8C66.4297 11.52 66.483 11.26 66.5897 11.02C66.6964 10.7667 66.843 10.5467 67.0297 10.36C67.2164 10.1733 67.4297 10.0267 67.6697 9.92C67.923 9.81333 68.1897 9.76 68.4697 9.76C68.7497 9.76 69.0097 9.81333 69.2497 9.92C69.503 10.0267 69.723 10.1733 69.9097 10.36C70.0964 10.5467 70.243 10.7667 70.3497 11.02C70.4564 11.26 70.5097 11.52 70.5097 11.8C70.5097 12.08 70.4564 12.3467 70.3497 12.6C70.243 12.84 70.0964 13.0533 69.9097 13.24C69.723 13.4267 69.503 13.5733 69.2497 13.68C69.0097 13.7867 68.7497 13.84 68.4697 13.84C68.1897 13.84 67.923 13.7867 67.6697 13.68C67.4297 13.5733 67.2164 13.4267 67.0297 13.24C66.843 13.0533 66.6964 12.84 66.5897 12.6C66.483 12.3467 66.4297 12.08 66.4297 11.8ZM76.1234 20.84C76.1234 21.1733 76.1834 21.4867 76.3034 21.78C76.4234 22.06 76.5834 22.3067 76.7834 22.52C76.9968 22.7333 77.2434 22.9 77.5234 23.02C77.8168 23.14 78.1301 23.2 78.4634 23.2C78.7834 23.2 79.0834 23.14 79.3634 23.02C79.6568 22.9 79.9034 22.7333 80.1034 22.52C80.3168 22.3067 80.4834 22.06 80.6034 21.78C80.7368 21.5 80.8034 21.2 80.8034 20.88C80.8034 20.56 80.7368 20.26 80.6034 19.98C80.4834 19.6867 80.3168 19.4333 80.1034 19.22C79.9034 19.0067 79.6568 18.84 79.3634 18.72C79.0834 18.6 78.7834 18.54 78.4634 18.54C78.1434 18.54 77.8368 18.6 77.5434 18.72C77.2634 18.84 77.0168 19.0067 76.8034 19.22C76.6034 19.4333 76.4368 19.68 76.3034 19.96C76.1834 20.2267 76.1234 20.52 76.1234 20.84ZM80.6834 9.4H84.3234V26H80.6834V24.86C79.9101 25.8333 78.8634 26.32 77.5434 26.32C76.7968 26.32 76.1101 26.18 75.4834 25.9C74.8568 25.62 74.3101 25.2333 73.8434 24.74C73.3768 24.2467 73.0101 23.6667 72.7434 23C72.4901 22.3333 72.3634 21.6133 72.3634 20.84C72.3634 20.1067 72.4834 19.4133 72.7234 18.76C72.9768 18.0933 73.3301 17.5133 73.7834 17.02C74.2368 16.5267 74.7768 16.14 75.4034 15.86C76.0434 15.5667 76.7434 15.42 77.5034 15.42C78.7834 15.42 79.8434 15.8667 80.6834 16.76V9.4ZM90.1469 20.84C90.1469 21.1733 90.2069 21.4867 90.3269 21.78C90.4469 22.06 90.6069 22.3067 90.8069 22.52C91.0202 22.7333 91.2669 22.9 91.5469 23.02C91.8402 23.14 92.1535 23.2 92.4869 23.2C92.8069 23.2 93.1069 23.14 93.3869 23.02C93.6802 22.9 93.9269 22.7333 94.1269 22.52C94.3402 22.3067 94.5069 22.06 94.6269 21.78C94.7602 21.5 94.8269 21.2 94.8269 20.88C94.8269 20.56 94.7602 20.26 94.6269 19.98C94.5069 19.6867 94.3402 19.4333 94.1269 19.22C93.9269 19.0067 93.6802 18.84 93.3869 18.72C93.1069 18.6 92.8069 18.54 92.4869 18.54C92.1535 18.54 91.8402 18.6 91.5469 18.72C91.2669 18.84 91.0202 19.0067 90.8069 19.22C90.6069 19.4333 90.4469 19.68 90.3269 19.96C90.2069 20.2267 90.1469 20.52 90.1469 20.84ZM94.7069 15.74H98.3469V26H94.7069V24.86C93.9335 25.8333 92.8869 26.32 91.5669 26.32C90.8202 26.32 90.1335 26.1867 89.5069 25.92C88.8802 25.64 88.3335 25.2533 87.8669 24.76C87.4002 24.2667 87.0335 23.6867 86.7669 23.02C86.5135 22.3533 86.3869 21.6267 86.3869 20.84C86.3869 20.1067 86.5135 19.4133 86.7669 18.76C87.0202 18.0933 87.3735 17.5133 87.8269 17.02C88.2802 16.5267 88.8202 16.14 89.4469 15.86C90.0735 15.5667 90.7669 15.42 91.5269 15.42C92.8069 15.42 93.8669 15.8667 94.7069 16.76V15.74ZM104.726 24.6L99.7656 15.74H103.966L106.706 21L109.366 15.74H113.526L105.286 31.12H101.226L104.726 24.6Z" fill="#2B2B2B"/>
</svg>
