<svg width="172" height="30" viewBox="0 0 172 30" fill="none" xmlns="http://www.w3.org/2000/svg">
<g clip-path="url(#clip0_20736_3858)">
<path d="M166.222 13.0228C167.48 13.0228 168.497 12.0028 168.497 10.7447C168.497 9.48662 167.48 8.4668 166.222 8.4668C164.965 8.4668 163.947 9.48662 163.947 10.7447C163.947 12.0028 164.965 13.0228 166.222 13.0228Z" fill="#0B3B2D"/>
<path d="M46.4469 21.681C45.4349 21.681 44.5022 21.5223 43.6487 21.205C42.8074 20.8754 42.0697 20.4116 41.4357 19.8136C40.8138 19.2156 40.3262 18.5137 39.9725 17.7082C39.6312 16.9027 39.4604 16.0177 39.4604 15.0536C39.4604 14.0894 39.6312 13.2045 39.9725 12.399C40.3262 11.5934 40.82 10.8916 41.454 10.2936C42.088 9.69552 42.8318 9.23788 43.6853 8.92048C44.5388 8.59095 45.4776 8.42619 46.5018 8.42619C47.6358 8.42619 48.6538 8.61541 49.5561 8.99372C50.4706 9.37209 51.2387 9.92133 51.8606 10.6414L49.9585 12.399C49.4951 11.9108 48.9892 11.5507 48.4405 11.3188C47.8918 11.0747 47.2944 10.9527 46.6482 10.9527C46.0263 10.9527 45.4594 11.0503 44.9473 11.2456C44.4352 11.4409 43.99 11.7216 43.6121 12.0877C43.2464 12.4539 42.9598 12.8871 42.7525 13.3876C42.5575 13.8881 42.4599 14.4433 42.4599 15.0536C42.4599 15.6516 42.5575 16.2009 42.7525 16.7013C42.9598 17.2017 43.2464 17.6411 43.6121 18.0194C43.99 18.3856 44.429 18.6663 44.929 18.8616C45.4411 19.0569 46.0019 19.1545 46.6116 19.1545C47.1968 19.1545 47.7638 19.063 48.3125 18.8799C48.8733 18.6846 49.4159 18.3611 49.9402 17.9096L51.6228 20.0516C50.9279 20.5764 50.117 20.9791 49.1904 21.2599C48.2759 21.5406 47.3614 21.681 46.4469 21.681ZM48.916 19.6671V14.8522H51.6228V20.0516L48.916 19.6671ZM53.4423 21.4613V7.87695H56.2954V21.4613H53.4423ZM62.8939 21.6077C61.8453 21.6077 60.9126 21.3881 60.0956 20.9487C59.2909 20.5093 58.6508 19.9113 58.1753 19.1545C57.7119 18.3856 57.4803 17.5129 57.4803 16.5365C57.4803 15.5479 57.7119 14.6753 58.1753 13.9185C58.6508 13.1496 59.2909 12.5516 60.0956 12.1244C60.9126 11.685 61.8453 11.4653 62.8939 11.4653C63.9303 11.4653 64.857 11.685 65.674 12.1244C66.491 12.5516 67.1306 13.1434 67.5942 13.9002C68.0577 14.6569 68.2892 15.5357 68.2892 16.5365C68.2892 17.5129 68.0577 18.3856 67.5942 19.1545C67.1306 19.9113 66.491 20.5093 65.674 20.9487C64.857 21.3881 63.9303 21.6077 62.8939 21.6077ZM62.8939 19.2644C63.3695 19.2644 63.7962 19.1545 64.1742 18.9348C64.5521 18.7151 64.8508 18.4039 65.0704 18.0011C65.2898 17.5862 65.3995 17.0979 65.3995 16.5365C65.3995 15.9629 65.2898 15.4747 65.0704 15.0719C64.8508 14.6691 64.5521 14.3579 64.1742 14.1382C63.7962 13.9185 63.3695 13.8087 62.8939 13.8087C62.4184 13.8087 61.9916 13.9185 61.6137 14.1382C61.2357 14.3579 60.9308 14.6691 60.6992 15.0719C60.4797 15.4747 60.37 15.9629 60.37 16.5365C60.37 17.0979 60.4797 17.5862 60.6992 18.0011C60.9308 18.4039 61.2357 18.7151 61.6137 18.9348C61.9916 19.1545 62.4184 19.2644 62.8939 19.2644ZM75.2811 21.6077C74.415 21.6077 73.6714 21.4247 73.0498 21.0585C72.4276 20.6924 71.9522 20.137 71.6231 19.3925C71.2939 18.6357 71.129 17.6837 71.129 16.5365C71.129 15.377 71.2995 14.425 71.6411 13.6805C71.9945 12.9361 72.4823 12.3807 73.1046 12.0145C73.7262 11.6484 74.4517 11.4653 75.2811 11.4653C76.2076 11.4653 77.0364 11.6728 77.7681 12.0877C78.5117 12.5027 79.0972 13.0885 79.524 13.8453C79.9627 14.6021 80.1823 15.4991 80.1823 16.5365C80.1823 17.5617 79.9627 18.4527 79.524 19.2094C79.0972 19.9662 78.5117 20.5581 77.7681 20.9853C77.0364 21.4002 76.2076 21.6077 75.2811 21.6077ZM69.4646 21.4613V7.87695H72.3181V13.6073L72.1351 16.5182L72.1899 19.4474V21.4613H69.4646ZM74.7871 19.2644C75.2624 19.2644 75.6831 19.1545 76.0489 18.9348C76.4272 18.7151 76.7259 18.4039 76.9449 18.0011C77.177 17.5862 77.2927 17.0979 77.2927 16.5365C77.2927 15.9629 77.177 15.4747 76.9449 15.0719C76.7259 14.6691 76.4272 14.3579 76.0489 14.1382C75.6831 13.9185 75.2624 13.8087 74.7871 13.8087C74.3117 13.8087 73.8848 13.9185 73.5065 14.1382C73.1288 14.3579 72.8302 14.6691 72.6105 15.0719C72.3909 15.4747 72.2814 15.9629 72.2814 16.5365C72.2814 17.0979 72.3909 17.5862 72.6105 18.0011C72.8302 18.4039 73.1288 18.7151 73.5065 18.9348C73.8848 19.1545 74.3117 19.2644 74.7871 19.2644ZM87.2352 21.4613V19.539L87.0523 19.1179V15.6761C87.0523 15.0657 86.8638 14.5897 86.4855 14.2481C86.1196 13.9063 85.5527 13.7354 84.7849 13.7354C84.2604 13.7354 83.7421 13.8209 83.23 13.9917C82.7303 14.1504 82.3035 14.3701 81.9501 14.6508L80.9259 12.6553C81.4623 12.2769 82.1081 11.9841 82.8641 11.7765C83.6201 11.569 84.3886 11.4653 85.1688 11.4653C86.6684 11.4653 87.8332 11.8193 88.662 12.5271C89.4914 13.235 89.9058 14.3396 89.9058 15.8408V21.4613H87.2352ZM84.2361 21.6077C83.4677 21.6077 82.8094 21.4796 82.2606 21.2233C81.7124 20.9548 81.2918 20.5947 80.9987 20.1431C80.7063 19.6916 80.56 19.185 80.56 18.6236C80.56 18.0377 80.7 17.5251 80.9807 17.0857C81.2731 16.6464 81.7304 16.3046 82.352 16.0605C82.9743 15.8042 83.785 15.6761 84.7849 15.6761H87.4001V17.3421H85.0954C84.4247 17.3421 83.9617 17.4519 83.7054 17.6716C83.4615 17.8913 83.3401 18.1659 83.3401 18.4954C83.3401 18.8616 83.4801 19.1545 83.7607 19.3742C84.0532 19.5817 84.4495 19.6854 84.9492 19.6854C85.4246 19.6854 85.8514 19.5756 86.2297 19.3559C86.6074 19.1241 86.8818 18.7884 87.0523 18.349L87.4916 19.6671C87.2844 20.3017 86.9061 20.7839 86.3579 21.1134C85.8091 21.443 85.1016 21.6077 84.2361 21.6077ZM91.7563 21.4613V7.87695H94.6092V21.4613H91.7563ZM96.7272 21.4613V8.6459H99.1775L106.731 17.873H105.542V8.6459H108.469V21.4613H106.036L98.4645 12.2342H99.6535V21.4613H96.7272ZM115.247 21.6077C114.198 21.6077 113.265 21.3881 112.449 20.9487C111.644 20.5093 111.004 19.9113 110.529 19.1545C110.065 18.3856 109.834 17.5129 109.834 16.5365C109.834 15.5479 110.065 14.6753 110.529 13.9185C111.004 13.1496 111.644 12.5516 112.449 12.1244C113.265 11.685 114.198 11.4653 115.247 11.4653C116.283 11.4653 117.211 11.685 118.027 12.1244C118.843 12.5516 119.484 13.1434 119.947 13.9002C120.411 14.6569 120.642 15.5357 120.642 16.5365C120.642 17.5129 120.411 18.3856 119.947 19.1545C119.484 19.9113 118.843 20.5093 118.027 20.9487C117.211 21.3881 116.283 21.6077 115.247 21.6077ZM115.247 19.2644C115.722 19.2644 116.15 19.1545 116.528 18.9348C116.905 18.7151 117.204 18.4039 117.424 18.0011C117.643 17.5862 117.753 17.0979 117.753 16.5365C117.753 15.9629 117.643 15.4747 117.424 15.0719C117.204 14.6691 116.905 14.3579 116.528 14.1382C116.15 13.9185 115.722 13.8087 115.247 13.8087C114.772 13.8087 114.344 13.9185 113.967 14.1382C113.589 14.3579 113.284 14.6691 113.052 15.0719C112.833 15.4747 112.723 15.9629 112.723 16.5365C112.723 17.0979 112.833 17.5862 113.052 18.0011C113.284 18.4039 113.589 18.7151 113.967 18.9348C114.344 19.1545 114.772 19.2644 115.247 19.2644ZM134.42 11.4653C135.2 11.4653 135.888 11.624 136.487 11.9413C137.095 12.2464 137.571 12.7224 137.913 13.3693C138.266 14.0039 138.443 14.8217 138.443 15.8225V21.4613H135.59V16.2619C135.59 15.4685 135.426 14.8827 135.097 14.5044C134.767 14.1261 134.303 13.9368 133.707 13.9368C133.291 13.9368 132.92 14.0345 132.591 14.2297C132.262 14.4128 132.005 14.6936 131.822 15.0719C131.64 15.4502 131.548 15.9324 131.548 16.5182V21.4613H128.695V16.2619C128.695 15.4685 128.53 14.8827 128.201 14.5044C127.884 14.1261 127.426 13.9368 126.83 13.9368C126.414 13.9368 126.043 14.0345 125.714 14.2297C125.385 14.4128 125.129 14.6936 124.946 15.0719C124.763 15.4502 124.671 15.9324 124.671 16.5182V21.4613H121.818V11.6117H124.544V14.303L124.032 13.5157C124.373 12.8445 124.854 12.3379 125.476 11.9962C126.11 11.6423 126.83 11.4653 127.634 11.4653C128.536 11.4653 129.322 11.6971 129.994 12.161C130.676 12.6125 131.127 13.3082 131.347 14.2481L130.341 13.9734C130.67 13.2045 131.195 12.5942 131.914 12.1427C132.646 11.6911 133.481 11.4653 134.42 11.4653ZM146.305 21.4613V19.539L146.122 19.1179V15.6761C146.122 15.0657 145.933 14.5897 145.555 14.2481C145.189 13.9063 144.622 13.7354 143.854 13.7354C143.329 13.7354 142.812 13.8209 142.299 13.9917C141.799 14.1504 141.372 14.3701 141.019 14.6508L139.995 12.6553C140.53 12.2769 141.177 11.9841 141.934 11.7765C142.688 11.569 143.457 11.4653 144.238 11.4653C145.738 11.4653 146.901 11.8193 147.731 12.5271C148.56 13.235 148.975 14.3396 148.975 15.8408V21.4613H146.305ZM143.305 21.6077C142.537 21.6077 141.879 21.4796 141.33 21.2233C140.781 20.9548 140.361 20.5947 140.068 20.1431C139.775 19.6916 139.629 19.185 139.629 18.6236C139.629 18.0377 139.769 17.5251 140.049 17.0857C140.342 16.6464 140.799 16.3046 141.421 16.0605C142.043 15.8042 142.853 15.6761 143.854 15.6761H146.469V17.3421H144.165C143.493 17.3421 143.031 17.4519 142.775 17.6716C142.53 17.8913 142.409 18.1659 142.409 18.4954C142.409 18.8616 142.549 19.1545 142.83 19.3742C143.122 19.5817 143.518 19.6854 144.019 19.6854C144.494 19.6854 144.92 19.5756 145.299 19.3559C145.676 19.1241 145.951 18.7884 146.122 18.349L146.56 19.6671C146.353 20.3017 145.976 20.7839 145.427 21.1134C144.878 21.443 144.17 21.6077 143.305 21.6077ZM155.121 21.6077C154.194 21.6077 153.36 21.4002 152.615 20.9853C151.872 20.5581 151.281 19.9662 150.841 19.2094C150.415 18.4527 150.201 17.5617 150.201 16.5365C150.201 15.4991 150.415 14.6021 150.841 13.8453C151.281 13.0885 151.872 12.5027 152.615 12.0877C153.36 11.6728 154.194 11.4653 155.121 11.4653C155.95 11.4653 156.676 11.6484 157.297 12.0145C157.919 12.3807 158.401 12.9361 158.742 13.6805C159.084 14.425 159.254 15.377 159.254 16.5365C159.254 17.6837 159.09 18.6357 158.76 19.3925C158.431 20.137 157.956 20.6924 157.334 21.0585C156.725 21.4247 155.987 21.6077 155.121 21.6077ZM155.615 19.2644C156.079 19.2644 156.499 19.1545 156.877 18.9348C157.256 18.7151 157.554 18.4039 157.773 18.0011C158.006 17.5862 158.121 17.0979 158.121 16.5365C158.121 15.9629 158.006 15.4747 157.773 15.0719C157.554 14.6691 157.256 14.3579 156.877 14.1382C156.499 13.9185 156.079 13.8087 155.615 13.8087C155.14 13.8087 154.713 13.9185 154.334 14.1382C153.957 14.3579 153.652 14.6691 153.42 15.0719C153.201 15.4747 153.091 15.9629 153.091 16.5365C153.091 17.0979 153.201 17.5862 153.42 18.0011C153.652 18.4039 153.957 18.7151 154.334 18.9348C154.713 19.1545 155.14 19.2644 155.615 19.2644ZM158.193 21.4613V19.4474L158.248 16.5182L158.066 13.6073V7.87695H160.919V21.4613H158.193Z" fill="#0B3B2D"/>
<path fill-rule="evenodd" clip-rule="evenodd" d="M17.2306 1C24.9548 1 31.2165 7.26802 31.2165 15C31.2165 22.732 24.9548 29 17.2306 29C9.50636 29 3.24463 22.732 3.24463 15C3.24463 7.26802 9.50636 1 17.2306 1ZM16.725 2.04761C15.1296 2.27238 13.6103 3.55575 12.4309 5.70218C12.0888 6.32478 11.7801 7.01262 11.5111 7.75534C13.1148 7.35189 14.8763 7.11409 16.725 7.07731V2.04761ZM10.3291 8.09159C10.6636 7.04071 11.0727 6.07388 11.545 5.21445C12.1297 4.15041 12.8235 3.23157 13.6052 2.52584C9.35425 3.76166 6.00352 7.11575 4.76894 11.371C5.47395 10.5884 6.39188 9.89392 7.45486 9.30872C8.31342 8.83602 9.27926 8.42635 10.3291 8.09159ZM9.99313 9.27475C9.59018 10.88 9.35259 12.6434 9.31584 14.4939H4.29119C4.51574 12.8968 5.79782 11.376 7.94209 10.1955C8.56407 9.85304 9.25122 9.54404 9.99313 9.27475ZM10.3271 14.4939C10.3689 12.4744 10.6593 10.5784 11.1398 8.90316C12.8134 8.42212 14.7076 8.13135 16.725 8.08954V10.2756C15.9724 12.2043 14.4373 13.7409 12.5104 14.4939H10.3271ZM9.31584 15.5061H4.29119C4.51574 17.1032 5.79782 18.6239 7.94209 19.8045C8.56407 20.147 9.25122 20.4559 9.99313 20.7253C9.59018 19.12 9.35259 17.3566 9.31584 15.5061ZM11.1398 21.0969C10.6593 19.4216 10.3689 17.5256 10.3271 15.5061H12.5104C14.4373 16.2591 15.9725 17.7957 16.725 19.7245V21.9105C14.7076 21.8687 12.8134 21.5778 11.1398 21.0969ZM10.3291 21.9085C9.27926 21.5737 8.31342 21.164 7.45486 20.6913C6.39188 20.1061 5.47395 19.4115 4.76894 18.629C6.00352 22.8842 9.35425 26.2383 13.6052 27.4741C12.8235 26.7684 12.1297 25.8496 11.545 24.7854C11.0727 23.9261 10.6636 22.9593 10.3291 21.9085ZM16.725 27.9524C15.1296 27.7276 13.6103 26.4442 12.4309 24.2978C12.0888 23.6753 11.7801 22.9873 11.5111 22.2447C13.1148 22.6481 14.8763 22.8859 16.725 22.9227V27.9524ZM20.8559 27.4741C21.6376 26.7684 22.3316 25.8496 22.9162 24.7854C23.3884 23.9261 23.7976 22.9593 24.1321 21.9085C25.1819 21.5737 26.1477 21.164 27.0063 20.6913C28.0692 20.1061 28.9873 19.4115 29.6922 18.629C28.4576 22.8842 25.1069 26.2383 20.8559 27.4741ZM22.9501 22.2447C22.681 22.9873 22.3724 23.6753 22.0303 24.2978C20.851 26.4442 19.3317 27.7276 17.7361 27.9524V22.9227C19.5849 22.8859 21.3464 22.6481 22.9501 22.2447ZM24.468 20.7253C25.2099 20.4559 25.8971 20.147 26.5191 19.8045C28.6633 18.6239 29.9454 17.1032 30.1699 15.5061H25.1454C25.1085 17.3566 24.871 19.12 24.468 20.7253ZM24.1341 15.5061C24.0924 17.5256 23.8018 19.4216 23.3214 21.0969C21.6478 21.5778 19.7536 21.8687 17.7361 21.9105V19.7261C18.4885 17.7966 20.0239 16.2594 21.9514 15.5061H24.1341ZM25.1454 14.4939H30.1699C29.9454 12.8968 28.6633 11.376 26.5191 10.1955C25.8971 9.85304 25.2099 9.54404 24.468 9.27475C24.871 10.88 25.1085 12.6434 25.1454 14.4939ZM23.3214 8.90316C23.8018 10.5784 24.0924 12.4744 24.1341 14.4939H21.9514C20.0239 13.7406 18.4885 12.2034 17.7361 10.274V8.08954C19.7536 8.13135 21.6478 8.42212 23.3214 8.90316ZM24.1321 8.09159C25.1819 8.42635 26.1477 8.83602 27.0063 9.30872C28.0692 9.89392 28.9873 10.5884 29.6922 11.371C28.4576 7.11575 25.1069 3.76166 20.8559 2.52584C21.6376 3.23157 22.3316 4.15041 22.9162 5.21445C23.3884 6.07388 23.7976 7.04071 24.1321 8.09159ZM17.7361 2.04761C19.3317 2.27238 20.851 3.55575 22.0303 5.70218C22.3724 6.32479 22.681 7.01262 22.9501 7.75534C21.3464 7.35189 19.5849 7.11409 17.7361 7.07731V2.04761Z" fill="#0B3B2D"/>
</g>
<defs>
<clipPath id="clip0_20736_3858">
<rect width="165.511" height="28" fill="white" transform="translate(3.24463 1)"/>
</clipPath>
</defs>
</svg>
