<svg width="123" height="55" viewBox="0 0 123 55" fill="none" xmlns="http://www.w3.org/2000/svg">
<path d="M9.72508 0V5.52474H3.45643V0H0V14.4731H3.45643V8.65171H9.72508V14.4731H13.1691V0H12.9957H9.72508Z" fill="#002D72"/>
<path d="M25.8421 0L22.2246 5.73485L18.6195 0H14.5312L20.5026 9.46745V14.4731H23.9466V9.46745L29.9055 0H29.5958H25.8421Z" fill="#002D72"/>
<path d="M40.4275 0V10.6169C40.4275 11.0124 40.1302 11.3461 39.6966 11.3461H34.1589V0H30.7148V14.4731H40.9231C41.8274 14.4731 42.5584 14.2012 43.0911 13.6821C43.6238 13.1506 43.884 12.4214 43.884 11.5191V0H43.7105H40.4275Z" fill="#002D72"/>
<path d="M56.9953 0H46.7871V14.4731H50.2435V3.13934H55.7813C56.2272 3.13934 56.5122 3.48541 56.5122 3.86855V14.4854H59.9562V2.9663C59.9562 2.06405 59.6961 1.33484 59.1634 0.803374C58.6306 0.271911 57.8997 0 56.9953 0Z" fill="#002D72"/>
<path d="M72.4477 3.89327V10.6045C72.4477 11 72.1628 11.3585 71.7168 11.3585H66.1791V3.13934H71.692C72.138 3.13934 72.4477 3.44833 72.4477 3.89327ZM72.9309 0H62.7227V14.4731H72.9309C73.8352 14.4731 74.5662 14.2012 75.0989 13.6821C75.6316 13.1506 75.9042 12.4214 75.9042 11.5191V2.9663C75.9042 2.06405 75.6316 1.33484 75.0989 0.803373C74.5662 0.271911 73.8352 0 72.9309 0Z" fill="#002D72"/>
<path d="M88.2224 3.13934V6.87193H81.9538V3.88091C81.9538 3.52248 82.2263 3.13934 82.6847 3.13934H88.2224ZM81.4706 0C80.5663 0 79.8353 0.271911 79.3026 0.803373C78.7699 1.33484 78.5098 2.06405 78.5098 2.9663V14.4731H81.9538V9.99891H88.2224V14.4731H91.6665V0H81.4706Z" fill="#002D72"/>
<path d="M98.3451 0H94.8887V14.4731H98.3451V0Z" fill="#002D72"/>
<g clip-path="url(#clip0_48_14854)">
<path d="M47.9422 55H39V22H47.9422V55Z" fill="#002D72"/>
<path d="M85.4952 29.5466H64.6578C63.9571 29.5466 63.4066 29.8279 62.9728 30.3906C62.5391 30.9533 62.3222 31.6153 62.3222 32.3435V32.4262C62.3222 34.2963 63.173 35.2231 64.858 35.2231H76.5029C80.1398 35.2231 82.6423 36.0671 84.027 37.7387C84.9613 38.864 85.4451 40.5356 85.4451 42.7698V46.5596C85.4451 49.34 84.5109 51.4749 82.6256 52.9974C80.9907 54.3214 78.9553 54.9834 76.5196 54.9834H53.3633V47.7181H73.9837C75.6687 47.7181 76.5196 46.7913 76.5196 44.9543V44.8716C76.5196 43.2828 75.7355 42.3395 74.1839 42.0747H62.3389C59.9031 42.0747 57.8678 41.4127 56.2328 40.0887C54.3476 38.5827 53.4133 36.4312 53.4133 33.6509V29.53C53.4133 27.2958 53.8805 25.6243 54.8314 24.4989C56.2161 22.8274 58.7186 21.9834 62.3555 21.9834H85.5118V29.53L85.4952 29.5466Z" fill="#002D72"/>
<path d="M123 55H99.8435C97.4077 55 95.3724 54.338 93.7374 53.014C91.8522 51.508 90.918 49.3566 90.918 46.5762V29.5466C90.918 27.3124 91.3851 25.6409 92.336 24.5155C93.7207 22.844 96.2232 22 99.8602 22H123.016V29.5466H102.179C101.462 29.5466 100.895 29.7783 100.477 30.2252C100.06 30.672 99.8602 31.2678 99.8602 31.9794V44.6068C99.8602 46.6921 100.711 47.7347 102.396 47.7347H123.016V55H123Z" fill="#002D72"/>
</g>
<defs>
<clipPath id="clip0_48_14854">
<rect width="84" height="33" fill="white" transform="translate(39 22)"/>
</clipPath>
</defs>
</svg>
